<?xml version="1.0" encoding="utf-8"?>
<!-- Generator: Adobe Illustrator 16.0.0, SVG Export Plug-In . SVG Version: 6.00 Build 0)  -->
<!DOCTYPE svg PUBLIC "-//W3C//DTD SVG 1.1//EN" "http://www.w3.org/Graphics/SVG/1.1/DTD/svg11.dtd">
<svg version="1.1" id="Layer_1" xmlns="http://www.w3.org/2000/svg" xmlns:xlink="http://www.w3.org/1999/xlink" x="0px" y="0px"
	 width="1199.701px" height="257.021px" viewBox="0 0 1199.701 257.021" enable-background="new 0 0 1199.701 257.021"
	 xml:space="preserve">
<g>
	<linearGradient id="SVGID_1_" gradientUnits="userSpaceOnUse" x1="-2.3945" y1="159.6172" x2="1197.989" y2="159.6172">
		<stop  offset="0" style="stop-color:#F15A29"/>
		<stop  offset="0.1876" style="stop-color:#F15E2A"/>
		<stop  offset="0.3748" style="stop-color:#F36A2D"/>
		<stop  offset="0.5619" style="stop-color:#F57E33"/>
		<stop  offset="0.7479" style="stop-color:#F89A3A"/>
		<stop  offset="0.8677" style="stop-color:#FBB040"/>
		<stop  offset="1" style="stop-color:#FBB040"/>
	</linearGradient>
	<path fill="url(#SVGID_1_)" d="M1103.316,63.235c-53.222,0-96.375,43.15-96.375,96.381v64.444h0.004
		c0.104,17.655,14.447,31.938,32.126,31.938c17.678,0,32.021-14.283,32.12-31.938h0.005v-64.444
		c0-17.741,14.379-32.126,32.12-32.126c17.75,0,32.134,14.385,32.134,32.126v64.444l0,0c0.104,17.655,14.447,31.938,32.126,31.938
		c17.677,0,32.021-14.283,32.125-31.938l0,0v-64.444C1199.701,106.389,1156.556,63.235,1103.316,63.235z"/>
	<linearGradient id="SVGID_2_" gradientUnits="userSpaceOnUse" x1="-2.3989" y1="159.6172" x2="1197.9902" y2="159.6172">
		<stop  offset="0" style="stop-color:#F15A29"/>
		<stop  offset="0.1876" style="stop-color:#F15E2A"/>
		<stop  offset="0.3748" style="stop-color:#F36A2D"/>
		<stop  offset="0.5619" style="stop-color:#F57E33"/>
		<stop  offset="0.7479" style="stop-color:#F89A3A"/>
		<stop  offset="0.8677" style="stop-color:#FBB040"/>
		<stop  offset="1" style="stop-color:#FBB040"/>
	</linearGradient>
	<path fill="url(#SVGID_2_)" d="M891.061,63.235c-53.228,0-96.384,43.15-96.384,96.381c0,53.231,43.156,96.383,96.384,96.383
		c53.23,0,96.381-43.151,96.381-96.383C987.441,106.385,944.291,63.235,891.061,63.235z M891.061,191.743
		c-17.742,0-32.129-14.383-32.129-32.127c0-17.741,14.387-32.126,32.129-32.126c17.744,0,32.126,14.385,32.126,32.126
		C923.187,177.36,908.805,191.743,891.061,191.743z"/>
	<linearGradient id="SVGID_3_" gradientUnits="userSpaceOnUse" x1="-2.395" y1="127.4888" x2="1197.9911" y2="127.4888">
		<stop  offset="0" style="stop-color:#F15A29"/>
		<stop  offset="0.1876" style="stop-color:#F15E2A"/>
		<stop  offset="0.3748" style="stop-color:#F36A2D"/>
		<stop  offset="0.5619" style="stop-color:#F57E33"/>
		<stop  offset="0.7479" style="stop-color:#F89A3A"/>
		<stop  offset="0.8677" style="stop-color:#FBB040"/>
		<stop  offset="1" style="stop-color:#FBB040"/>
	</linearGradient>
	<path fill="url(#SVGID_3_)" d="M96.384,63.235c-11.269,0-22.078,1.951-32.129,5.505V31.108c0-17.742-14.386-32.129-32.129-32.129
		S0,13.366,0,31.108v128.508c0,53.231,43.152,96.383,96.384,96.383c53.225,0,96.38-43.151,96.38-96.383
		C192.764,106.385,149.608,63.235,96.384,63.235z M96.384,191.743c-17.744,0-32.129-14.383-32.129-32.127
		c0-17.741,14.385-32.126,32.129-32.126c17.744,0,32.125,14.385,32.125,32.126C128.509,177.36,114.128,191.743,96.384,191.743z"/>
	<linearGradient id="SVGID_4_" gradientUnits="userSpaceOnUse" x1="-2.3955" y1="159.877" x2="1197.9889" y2="159.877">
		<stop  offset="0" style="stop-color:#F15A29"/>
		<stop  offset="0.1876" style="stop-color:#F15E2A"/>
		<stop  offset="0.3748" style="stop-color:#F36A2D"/>
		<stop  offset="0.5619" style="stop-color:#F57E33"/>
		<stop  offset="0.7479" style="stop-color:#F89A3A"/>
		<stop  offset="0.8677" style="stop-color:#FBB040"/>
		<stop  offset="1" style="stop-color:#FBB040"/>
	</linearGradient>
	<path fill="url(#SVGID_4_)" d="M635.434,232.933c-6.224-5.127-9.521-12.087-9.521-19.78c0-13.909,11.351-25.263,25.633-25.263
		c5.128,0,10.254,1.463,16.845,6.225c9.52,6.59,22.331,12.083,35.518,12.083c8.792,0,16.115-1.834,16.115-8.058
		c0-4.392-3.665-6.22-10.624-9.151l-20.506-8.417c-33.322-13.55-53.094-28.566-53.094-58.959c0-36.615,28.924-57.857,71.036-57.857
		c20.143,0,41.742,5.495,57.493,16.115c7.688,5.127,12.08,13.179,12.08,21.601c0,14.279-11.354,25.632-25.269,25.632
		c-5.124,0-10.249-2.194-14.642-4.757c-9.521-5.497-19.042-8.786-29.294-8.786c-8.059,0-12.818,1.828-12.818,6.953
		c0,4.762,4.028,6.59,12.449,9.888l18.313,7.326c32.587,13.18,53.459,26.729,53.459,57.485c0,38.446-32.223,60.786-75.798,60.786
		C676.443,255.999,652.645,247.574,635.434,232.933z"/>
	<linearGradient id="SVGID_5_" gradientUnits="userSpaceOnUse" x1="-2.3955" y1="159.6172" x2="1197.9906" y2="159.6172">
		<stop  offset="0" style="stop-color:#F15A29"/>
		<stop  offset="0.1876" style="stop-color:#F15E2A"/>
		<stop  offset="0.3748" style="stop-color:#F36A2D"/>
		<stop  offset="0.5619" style="stop-color:#F57E33"/>
		<stop  offset="0.7479" style="stop-color:#F89A3A"/>
		<stop  offset="0.8677" style="stop-color:#FBB040"/>
		<stop  offset="1" style="stop-color:#FBB040"/>
	</linearGradient>
	<path fill="url(#SVGID_5_)" d="M369.462,63.235c-8.864,0-16.889,3.588-22.705,9.396c-12.582-6.019-26.666-9.396-41.545-9.396
		c-53.234,0-96.386,43.15-96.386,96.381c0,53.231,43.152,96.383,96.386,96.383c14.879,0,28.967-3.377,41.549-9.397
		c5.813,5.802,13.838,9.397,22.702,9.397c17.742,0,32.128-14.387,32.128-32.131V95.358C401.59,77.617,387.204,63.235,369.462,63.235
		z M305.211,191.743c-17.744,0-32.131-14.383-32.131-32.127c0-17.741,14.387-32.126,32.131-32.126
		c17.742,0,32.124,14.385,32.124,32.126C337.335,177.36,322.953,191.743,305.211,191.743z"/>
	<linearGradient id="SVGID_6_" gradientUnits="userSpaceOnUse" x1="-2.3936" y1="159.5859" x2="1197.9871" y2="159.5859">
		<stop  offset="0" style="stop-color:#F15A29"/>
		<stop  offset="0.1876" style="stop-color:#F15E2A"/>
		<stop  offset="0.3748" style="stop-color:#F36A2D"/>
		<stop  offset="0.5619" style="stop-color:#F57E33"/>
		<stop  offset="0.7479" style="stop-color:#F89A3A"/>
		<stop  offset="0.8677" style="stop-color:#FBB040"/>
		<stop  offset="1" style="stop-color:#FBB040"/>
	</linearGradient>
	<path fill="url(#SVGID_6_)" d="M603.896,201.576l-0.445-0.444c-0.006-0.006-0.012-0.016-0.021-0.023
		c-0.006-0.006-0.014-0.014-0.02-0.02l-41.502-41.503l41.489-41.494c0.01-0.008,0.023-0.016,0.033-0.03
		c12.545-12.543,12.545-32.877,0-45.419c-12.543-12.543-32.877-12.543-45.42-0.002l-64.466,64.468l0.012,0.015
		c-0.047,0.047-0.087,0.103-0.135,0.152V95.353c0-17.738-14.379-32.117-32.116-32.117c-17.74,0-32.119,14.379-32.119,32.117v128.437
		c-0.008,8.23,3.128,16.461,9.405,22.74c12.543,12.544,32.878,12.544,45.421,0c6.27-6.271,9.408-14.49,9.408-22.709v-41.917
		c0.123,0.126,0.229,0.267,0.354,0.392c0.08,0.08,0.167,0.145,0.247,0.223l-0.012,0.011l64.466,64.468l0.025-0.024
		c12.576,12.074,32.545,11.944,44.929-0.442c12.387-12.385,12.519-32.355,0.444-44.93L603.896,201.576z"/>
</g>
</svg>
